<svg width="1000" height="200" viewBox="0 0 1000 200" fill="none" xmlns="http://www.w3.org/2000/svg">
<path fill-rule="evenodd" clip-rule="evenodd" d="M0 5C0 2.23858 2.23858 0 5 0H10C12.7614 0 15 2.23857 15 5V180C15 182.761 17.2385 185 20 185H980C982.761 185 985 182.761 985 180V5C985 2.23858 987.239 0 990 0H995C997.761 0 1000 2.23857 1000 5V185V195C1000 197.761 997.761 200 995 200H985H15H5C2.23858 200 0 197.761 0 195V185V5Z" fill="#2F2F2F"/>
<mask id="path-2-inside-1_49_62" fill="white">
<path fill-rule="evenodd" clip-rule="evenodd" d="M83 9C78.5817 9 75 12.5817 75 17V166C75 170.418 78.5817 174 83 174H93V176C93 178.209 94.7909 180 97 180H448C450.209 180 452 178.209 452 176V174H462C466.418 174 470 170.418 470 166V17C470 12.5817 466.418 9 462 9H83Z"/>
</mask>
<path d="M93 174H96V171H93V174ZM452 174V171H449V174H452ZM78 17C78 14.2386 80.2386 12 83 12V6C76.9249 6 72 10.9249 72 17H78ZM78 166V17H72V166H78ZM83 171C80.2386 171 78 168.761 78 166H72C72 172.075 76.9249 177 83 177V171ZM93 171H83V177H93V171ZM96 176V174H90V176H96ZM97 177C96.4477 177 96 176.552 96 176H90C90 179.866 93.134 183 97 183V177ZM448 177H97V183H448V177ZM449 176C449 176.552 448.552 177 448 177V183C451.866 183 455 179.866 455 176H449ZM449 174V176H455V174H449ZM462 171H452V177H462V171ZM467 166C467 168.761 464.761 171 462 171V177C468.075 177 473 172.075 473 166H467ZM467 17V166H473V17H467ZM462 12C464.761 12 467 14.2386 467 17H473C473 10.9249 468.075 6 462 6V12ZM83 12H462V6H83V12Z" fill="#535353" mask="url(#path-2-inside-1_49_62)"/>
<rect x="421" y="28" width="12" height="4" rx="2" fill="#535353"/>
<circle cx="449" cy="30" r="8" fill="#535353"/>
<mask id="path-6-inside-2_49_62" fill="white">
<path fill-rule="evenodd" clip-rule="evenodd" d="M538 108C533.582 108 530 111.582 530 116V166C530 170.418 533.582 174 538 174H548V176C548 178.209 549.791 180 552 180H903C905.209 180 907 178.209 907 176V174H917C921.418 174 925 170.418 925 166V116C925 111.582 921.418 108 917 108H538Z"/>
</mask>
<path d="M548 174H551V171H548V174ZM907 174V171H904V174H907ZM533 116C533 113.239 535.239 111 538 111V105C531.925 105 527 109.925 527 116H533ZM533 166V116H527V166H533ZM538 171C535.239 171 533 168.761 533 166H527C527 172.075 531.925 177 538 177V171ZM548 171H538V177H548V171ZM551 176V174H545V176H551ZM552 177C551.448 177 551 176.552 551 176H545C545 179.866 548.134 183 552 183V177ZM903 177H552V183H903V177ZM904 176C904 176.552 903.552 177 903 177V183C906.866 183 910 179.866 910 176H904ZM904 174V176H910V174H904ZM917 171H907V177H917V171ZM922 166C922 168.761 919.761 171 917 171V177C923.075 177 928 172.075 928 166H922ZM922 116V166H928V116H922ZM917 111C919.761 111 922 113.239 922 116H928C928 109.925 923.075 105 917 105V111ZM538 111H917V105H538V111Z" fill="#535353" mask="url(#path-6-inside-2_49_62)"/>
<circle cx="814" cy="154" r="4" fill="#535353"/>
<rect x="826" y="150" width="18" height="8" rx="2" fill="#535353"/>
<rect x="852" y="150" width="18" height="8" rx="2" fill="#535353"/>
<rect x="878" y="152" width="12" height="4" rx="2" fill="#535353"/>
<circle cx="906" cy="154" r="8" fill="#535353"/>
<rect x="89" y="23" width="30" height="115" rx="1" stroke="#535353" stroke-width="2"/>
<rect x="131" y="23" width="30" height="115" rx="1" stroke="#535353" stroke-width="2"/>
<rect x="173" y="23" width="30" height="115" rx="1" stroke="#535353" stroke-width="2"/>
<rect x="215" y="23" width="30" height="115" rx="1" stroke="#535353" stroke-width="2"/>
<rect x="257" y="23" width="30" height="115" rx="1" stroke="#535353" stroke-width="2"/>
<rect x="299" y="23" width="30" height="115" rx="1" stroke="#535353" stroke-width="2"/>
<rect x="341" y="23" width="30" height="115" rx="1" stroke="#535353" stroke-width="2"/>
</svg>
