<svg width="1000" height="100" viewBox="0 0 1000 100" fill="none" xmlns="http://www.w3.org/2000/svg">
<path fill-rule="evenodd" clip-rule="evenodd" d="M0 5C0 2.23858 2.23858 0 5 0H10C12.7614 0 15 2.23858 15 5V80C15 82.7614 17.2385 85 20 85H980C982.761 85 985 82.7614 985 80V5C985 2.23858 987.239 0 990 0H995C997.761 0 1000 2.23858 1000 5V85V95C1000 97.7614 997.761 100 995 100H985H15H5C2.23858 100 0 97.7614 0 95V85V5Z" fill="#2F2F2F"/>
<mask id="path-2-inside-1_48_16" fill="white">
<path fill-rule="evenodd" clip-rule="evenodd" d="M83 0C78.5817 0 75 3.58172 75 8V58C75 62.4183 78.5817 66 83 66H93V68C93 70.2091 94.7909 72 97 72H448C450.209 72 452 70.2091 452 68V66H462C466.418 66 470 62.4183 470 58V8C470 3.58172 466.418 0 462 0H83Z"/>
</mask>
<path d="M93 66H96V63H93V66ZM452 66V63H449V66H452ZM78 8C78 5.23858 80.2386 3 83 3V-3C76.9249 -3 72 1.92487 72 8H78ZM78 58V8H72V58H78ZM83 63C80.2386 63 78 60.7614 78 58H72C72 64.0751 76.9249 69 83 69V63ZM93 63H83V69H93V63ZM96 68V66H90V68H96ZM97 69C96.4477 69 96 68.5523 96 68H90C90 71.866 93.134 75 97 75V69ZM448 69H97V75H448V69ZM449 68C449 68.5523 448.552 69 448 69V75C451.866 75 455 71.866 455 68H449ZM449 66V68H455V66H449ZM462 63H452V69H462V63ZM467 58C467 60.7614 464.761 63 462 63V69C468.075 69 473 64.0751 473 58H467ZM467 8V58H473V8H467ZM462 3C464.761 3 467 5.23858 467 8H473C473 1.92487 468.075 -3 462 -3V3ZM83 3H462V-3H83V3Z" fill="#535353" mask="url(#path-2-inside-1_48_16)"/>
<circle cx="359" cy="46" r="4" fill="#535353"/>
<rect x="371" y="42" width="18" height="8" rx="2" fill="#535353"/>
<rect x="397" y="42" width="18" height="8" rx="2" fill="#535353"/>
<rect x="423" y="44" width="12" height="4" rx="2" fill="#535353"/>
<circle cx="451" cy="46" r="8" fill="#535353"/>
<mask id="path-9-inside-2_48_16" fill="white">
<path fill-rule="evenodd" clip-rule="evenodd" d="M538 0C533.582 0 530 3.58172 530 8V58C530 62.4183 533.582 66 538 66H548V68C548 70.2091 549.791 72 552 72H903C905.209 72 907 70.2091 907 68V66H917C921.418 66 925 62.4183 925 58V8C925 3.58172 921.418 0 917 0H538Z"/>
</mask>
<path d="M548 66H551V63H548V66ZM907 66V63H904V66H907ZM533 8C533 5.23858 535.239 3 538 3V-3C531.925 -3 527 1.92487 527 8H533ZM533 58V8H527V58H533ZM538 63C535.239 63 533 60.7614 533 58H527C527 64.0751 531.925 69 538 69V63ZM548 63H538V69H548V63ZM551 68V66H545V68H551ZM552 69C551.448 69 551 68.5523 551 68H545C545 71.866 548.134 75 552 75V69ZM903 69H552V75H903V69ZM904 68C904 68.5523 903.552 69 903 69V75C906.866 75 910 71.866 910 68H904ZM904 66V68H910V66H904ZM917 63H907V69H917V63ZM922 58C922 60.7614 919.761 63 917 63V69C923.075 69 928 64.0751 928 58H922ZM922 8V58H928V8H922ZM917 3C919.761 3 922 5.23858 922 8H928C928 1.92487 923.075 -3 917 -3V3ZM538 3H917V-3H538V3Z" fill="#535353" mask="url(#path-9-inside-2_48_16)"/>
<circle cx="814" cy="46" r="4" fill="#535353"/>
<rect x="826" y="42" width="18" height="8" rx="2" fill="#535353"/>
<rect x="852" y="42" width="18" height="8" rx="2" fill="#535353"/>
<rect x="878" y="44" width="12" height="4" rx="2" fill="#535353"/>
<circle cx="906" cy="46" r="8" fill="#535353"/>
</svg>
