<svg width="1000" height="100" viewBox="0 0 1000 100" fill="none" xmlns="http://www.w3.org/2000/svg">
<rect width="1000" height="100" fill="black"/>
<path fill-rule="evenodd" clip-rule="evenodd" d="M46.5 64.5C54.5081 64.5 61 58.0081 61 50C61 41.9919 54.5081 35.5 46.5 35.5C38.4919 35.5 32 41.9919 32 50C32 58.0081 38.4919 64.5 46.5 64.5ZM46.9729 47.192V57.2H50.0329V53.132C50.3449 53.684 50.7289 54.086 51.1849 54.338C51.6409 54.59 52.2049 54.716 52.8769 54.716C53.6689 54.716 54.3349 54.5 54.8749 54.068C55.4149 53.636 55.8229 53.036 56.0989 52.268C56.3749 51.5 56.5129 50.624 56.5129 49.64C56.5129 48.644 56.3749 47.768 56.0989 47.012C55.8229 46.244 55.4149 45.644 54.8749 45.212C54.3349 44.78 53.6689 44.564 52.8769 44.564C52.1689 44.564 51.5809 44.726 51.1129 45.05C50.6569 45.362 50.2969 45.812 50.0329 46.4L49.9609 44.78H47.26H46.9729H43.956C43.272 44.78 42.744 44.942 42.372 45.266C42 45.578 41.742 46.046 41.598 46.67L41.436 44.78H37.08V47.12H39.276V52.16H37.08V54.5H45.216V52.16H42.336V49.1C42.336 48.452 42.486 47.972 42.786 47.66C43.098 47.348 43.584 47.192 44.244 47.192H46.9729ZM52.9309 51.548C52.6549 51.908 52.2529 52.088 51.7249 52.088C51.2569 52.088 50.8549 51.896 50.5189 51.512C50.1949 51.128 50.0329 50.504 50.0329 49.64C50.0329 48.776 50.1949 48.152 50.5189 47.768C50.8549 47.384 51.2569 47.192 51.7249 47.192C52.2529 47.192 52.6549 47.378 52.9309 47.75C53.2069 48.11 53.3449 48.74 53.3449 49.64C53.3449 50.54 53.2069 51.176 52.9309 51.548Z" fill="white"/>
<path d="M69 55.04V53.51H71.43V46.994H69V45.464H72.87L72.978 47.3C73.302 46.076 74.07 45.464 75.282 45.464H77.316V47.048H75.354C73.95 47.048 73.248 47.816 73.248 49.352V53.51H76.236V55.04H69Z" fill="white"/>
<path d="M81.845 55.256C81.245 55.256 80.705 55.148 80.225 54.932C79.745 54.716 79.361 54.41 79.073 54.014C78.797 53.618 78.659 53.156 78.659 52.628C78.659 51.812 78.905 51.182 79.397 50.738C79.901 50.282 80.657 49.952 81.665 49.748L84.761 49.1C84.761 47.612 84.113 46.868 82.817 46.868C82.217 46.868 81.749 47.006 81.413 47.282C81.077 47.558 80.849 47.942 80.729 48.434L78.821 48.308C79.001 47.396 79.439 46.658 80.135 46.094C80.831 45.53 81.725 45.248 82.817 45.248C84.041 45.248 84.971 45.596 85.607 46.292C86.255 46.988 86.579 47.948 86.579 49.172V52.952C86.579 53.168 86.621 53.324 86.705 53.42C86.801 53.504 86.945 53.546 87.137 53.546H87.677V55.04C87.605 55.052 87.485 55.064 87.317 55.076C87.161 55.088 87.005 55.094 86.849 55.094C85.745 55.094 85.091 54.62 84.887 53.672C84.647 54.14 84.251 54.524 83.699 54.824C83.159 55.112 82.541 55.256 81.845 55.256ZM82.115 53.762C82.991 53.762 83.651 53.54 84.095 53.096C84.539 52.64 84.761 52.034 84.761 51.278V50.54L82.097 51.08C81.521 51.2 81.119 51.374 80.891 51.602C80.663 51.818 80.549 52.112 80.549 52.484C80.549 52.892 80.687 53.21 80.963 53.438C81.239 53.654 81.623 53.762 82.115 53.762Z" fill="white"/>
<path d="M93.6099 55.256C92.7219 55.256 91.9419 55.052 91.2699 54.644C90.5979 54.224 90.0759 53.642 89.7039 52.898C89.3319 52.142 89.1459 51.26 89.1459 50.252C89.1459 49.244 89.3319 48.368 89.7039 47.624C90.0759 46.868 90.5979 46.286 91.2699 45.878C91.9419 45.458 92.7219 45.248 93.6099 45.248C94.7019 45.248 95.6139 45.554 96.3459 46.166C97.0899 46.766 97.5519 47.606 97.7319 48.686L95.8779 48.812C95.7339 48.212 95.4639 47.75 95.0679 47.426C94.6719 47.09 94.1919 46.922 93.6279 46.922C92.8119 46.922 92.1759 47.222 91.7199 47.822C91.2639 48.41 91.0359 49.22 91.0359 50.252C91.0359 51.284 91.2639 52.1 91.7199 52.7C92.1759 53.288 92.8119 53.582 93.6279 53.582C94.2039 53.582 94.6959 53.414 95.1039 53.078C95.5239 52.73 95.7999 52.22 95.9319 51.548L97.7859 51.656C97.6059 52.748 97.1379 53.624 96.3819 54.284C95.6259 54.932 94.7019 55.256 93.6099 55.256Z" fill="white"/>
<path d="M99.6869 55.04V42.26H101.505V50.288L105.825 45.464H108.147L104.403 49.532L108.309 55.04H106.167L103.197 50.756L101.505 52.538V55.04H99.6869Z" fill="white"/>
<path d="M109.796 57.74V45.464H111.524L111.542 47.012C111.83 46.436 112.22 45.998 112.712 45.698C113.216 45.398 113.798 45.248 114.458 45.248C115.382 45.248 116.138 45.482 116.726 45.95C117.314 46.406 117.752 47.012 118.04 47.768C118.328 48.524 118.472 49.352 118.472 50.252C118.472 51.152 118.328 51.98 118.04 52.736C117.752 53.492 117.314 54.104 116.726 54.572C116.138 55.028 115.382 55.256 114.458 55.256C113.822 55.256 113.252 55.124 112.748 54.86C112.256 54.596 111.878 54.23 111.614 53.762V57.74H109.796ZM114.116 53.582C114.884 53.582 115.484 53.294 115.916 52.718C116.348 52.142 116.564 51.32 116.564 50.252C116.564 49.184 116.348 48.362 115.916 47.786C115.484 47.21 114.884 46.922 114.116 46.922C113.36 46.922 112.754 47.204 112.298 47.768C111.842 48.32 111.614 49.148 111.614 50.252C111.614 51.356 111.836 52.19 112.28 52.754C112.736 53.306 113.348 53.582 114.116 53.582Z" fill="white"/>
<path d="M119.761 55.04V53.51H123.505V44.978C123.505 44.606 123.403 44.318 123.199 44.114C122.995 43.898 122.701 43.79 122.317 43.79H120.121V42.26H122.515C124.387 42.26 125.323 43.196 125.323 45.068V53.51H128.545V55.04H119.761Z" fill="white"/>
<path d="M133.11 55.256C132.51 55.256 131.97 55.148 131.49 54.932C131.01 54.716 130.626 54.41 130.338 54.014C130.062 53.618 129.924 53.156 129.924 52.628C129.924 51.812 130.17 51.182 130.662 50.738C131.166 50.282 131.922 49.952 132.93 49.748L136.026 49.1C136.026 47.612 135.378 46.868 134.082 46.868C133.482 46.868 133.014 47.006 132.678 47.282C132.342 47.558 132.114 47.942 131.994 48.434L130.086 48.308C130.266 47.396 130.704 46.658 131.4 46.094C132.096 45.53 132.99 45.248 134.082 45.248C135.306 45.248 136.236 45.596 136.872 46.292C137.52 46.988 137.844 47.948 137.844 49.172V52.952C137.844 53.168 137.886 53.324 137.97 53.42C138.066 53.504 138.21 53.546 138.402 53.546H138.942V55.04C138.87 55.052 138.75 55.064 138.582 55.076C138.426 55.088 138.27 55.094 138.114 55.094C137.01 55.094 136.356 54.62 136.152 53.672C135.912 54.14 135.516 54.524 134.964 54.824C134.424 55.112 133.806 55.256 133.11 55.256ZM133.38 53.762C134.256 53.762 134.916 53.54 135.36 53.096C135.804 52.64 136.026 52.034 136.026 51.278V50.54L133.362 51.08C132.786 51.2 132.384 51.374 132.156 51.602C131.928 51.818 131.814 52.112 131.814 52.484C131.814 52.892 131.952 53.21 132.228 53.438C132.504 53.654 132.888 53.762 133.38 53.762Z" fill="white"/>
<path d="M140.699 55.04V45.464H142.373L142.409 47.192C142.661 46.532 143.057 46.046 143.597 45.734C144.137 45.41 144.743 45.248 145.415 45.248C146.123 45.248 146.711 45.41 147.179 45.734C147.659 46.046 148.019 46.478 148.259 47.03C148.499 47.57 148.619 48.182 148.619 48.866V55.04H146.801V49.334C146.801 47.666 146.165 46.832 144.893 46.832C144.233 46.832 143.669 47.048 143.201 47.48C142.745 47.912 142.517 48.542 142.517 49.37V55.04H140.699Z" fill="white"/>
<path d="M153.688 55.04V52.664H156.136V55.04H153.688Z" fill="white" fill-opacity="0.4"/>
<path d="M164.409 55.256C163.185 55.256 162.213 54.812 161.493 53.924C160.773 53.024 160.413 51.8 160.413 50.252C160.413 48.704 160.773 47.486 161.493 46.598C162.213 45.698 163.185 45.248 164.409 45.248C165.081 45.248 165.663 45.404 166.155 45.716C166.659 46.028 167.031 46.394 167.271 46.814V42.26H169.089V55.04H167.397L167.343 53.564C167.079 54.092 166.695 54.506 166.191 54.806C165.687 55.106 165.093 55.256 164.409 55.256ZM164.715 53.582C165.507 53.582 166.131 53.288 166.587 52.7C167.043 52.1 167.271 51.284 167.271 50.252C167.271 49.208 167.037 48.392 166.569 47.804C166.113 47.216 165.483 46.922 164.679 46.922C163.947 46.922 163.371 47.216 162.951 47.804C162.531 48.392 162.321 49.208 162.321 50.252C162.321 51.284 162.531 52.1 162.951 52.7C163.371 53.288 163.959 53.582 164.715 53.582Z" fill="white" fill-opacity="0.4"/>
<path d="M175.544 55.256C174.644 55.256 173.858 55.052 173.186 54.644C172.526 54.224 172.01 53.642 171.638 52.898C171.278 52.142 171.098 51.26 171.098 50.252C171.098 49.244 171.278 48.368 171.638 47.624C172.01 46.868 172.52 46.286 173.168 45.878C173.828 45.458 174.602 45.248 175.49 45.248C176.342 45.248 177.092 45.446 177.74 45.842C178.388 46.238 178.892 46.814 179.252 47.57C179.624 48.326 179.81 49.232 179.81 50.288V50.792H173.006C173.054 51.716 173.306 52.412 173.762 52.88C174.218 53.348 174.818 53.582 175.562 53.582C176.126 53.582 176.594 53.45 176.966 53.186C177.338 52.922 177.596 52.568 177.74 52.124L179.648 52.25C179.372 53.162 178.874 53.894 178.154 54.446C177.446 54.986 176.576 55.256 175.544 55.256ZM173.006 49.334H177.848C177.776 48.518 177.524 47.912 177.092 47.516C176.66 47.12 176.126 46.922 175.49 46.922C174.806 46.922 174.248 47.126 173.816 47.534C173.396 47.942 173.126 48.542 173.006 49.334Z" fill="white" fill-opacity="0.4"/>
<path d="M184.537 55.04L181.081 45.464H183.043L185.671 53.114L188.299 45.464H190.261L186.805 55.04H184.537Z" fill="white" fill-opacity="0.4"/>
<path d="M758.65 44.618V33.258H761.45L764.586 42.058L767.722 33.258H770.522V44.618H768.442V36.778L765.578 44.602H763.594L760.73 36.778V44.618H758.65Z" fill="white" fill-opacity="0.9"/>
<path d="M774.96 44.81C774.064 44.81 773.344 44.6073 772.8 44.202C772.256 43.7967 771.984 43.2207 771.984 42.474C771.984 41.738 772.213 41.162 772.672 40.746C773.13 40.33 773.829 40.0313 774.768 39.85L777.6 39.29C777.6 38.074 777.056 37.466 775.968 37.466C775.466 37.466 775.072 37.5833 774.784 37.818C774.506 38.042 774.32 38.3673 774.224 38.794L772.128 38.698C772.298 37.802 772.714 37.1087 773.376 36.618C774.037 36.1273 774.901 35.882 775.968 35.882C777.184 35.882 778.101 36.1913 778.72 36.81C779.338 37.418 779.648 38.2927 779.648 39.434V42.538C779.648 42.762 779.685 42.9167 779.76 43.002C779.845 43.0873 779.968 43.13 780.128 43.13H780.4V44.618C780.218 44.6607 779.973 44.682 779.664 44.682C779.194 44.682 778.8 44.586 778.48 44.394C778.16 44.1913 777.957 43.8287 777.872 43.306C777.658 43.754 777.29 44.1167 776.768 44.394C776.256 44.6713 775.653 44.81 774.96 44.81ZM775.376 43.322C776.058 43.322 776.597 43.1247 776.992 42.73C777.397 42.3353 777.6 41.8127 777.6 41.162V40.682L775.392 41.13C774.933 41.226 774.602 41.37 774.4 41.562C774.208 41.7433 774.112 41.9833 774.112 42.282C774.112 42.9753 774.533 43.322 775.376 43.322Z" fill="white" fill-opacity="0.9"/>
<path d="M784.493 44.81C783.757 44.81 783.123 44.6287 782.589 44.266C782.067 43.9033 781.661 43.3913 781.373 42.73C781.085 42.058 780.941 41.2633 780.941 40.346C780.941 39.4393 781.085 38.65 781.373 37.978C781.672 37.306 782.083 36.7887 782.605 36.426C783.139 36.0633 783.768 35.882 784.493 35.882C785.091 35.882 785.613 36.0047 786.061 36.25C786.509 36.4953 786.851 36.842 787.085 37.29V33.258H789.133V44.618H787.197L787.149 43.354C786.904 43.8127 786.547 44.17 786.077 44.426C785.608 44.682 785.08 44.81 784.493 44.81ZM785.101 43.146C785.741 43.146 786.232 42.906 786.573 42.426C786.915 41.9353 787.085 41.242 787.085 40.346C787.085 39.4393 786.915 38.746 786.573 38.266C786.232 37.786 785.741 37.546 785.101 37.546C784.483 37.546 783.987 37.7967 783.613 38.298C783.251 38.7887 783.069 39.4713 783.069 40.346C783.069 41.1993 783.251 41.882 783.613 42.394C783.987 42.8953 784.483 43.146 785.101 43.146Z" fill="white" fill-opacity="0.9"/>
<path d="M794.575 44.81C793.722 44.81 792.98 44.6287 792.351 44.266C791.732 43.8927 791.247 43.37 790.895 42.698C790.554 42.026 790.383 41.242 790.383 40.346C790.383 39.45 790.554 38.666 790.895 37.994C791.236 37.322 791.716 36.8047 792.335 36.442C792.964 36.0687 793.695 35.882 794.527 35.882C795.348 35.882 796.063 36.0633 796.671 36.426C797.279 36.7887 797.748 37.3113 798.079 37.994C798.42 38.6767 798.591 39.498 798.591 40.458V40.922H792.511C792.543 41.6687 792.746 42.234 793.119 42.618C793.492 42.9913 793.983 43.178 794.591 43.178C795.519 43.178 796.111 42.7833 796.367 41.994L798.463 42.122C798.228 42.954 797.764 43.61 797.071 44.09C796.388 44.57 795.556 44.81 794.575 44.81ZM792.511 39.546H796.463C796.42 38.8527 796.223 38.3407 795.871 38.01C795.519 37.6687 795.071 37.498 794.527 37.498C793.972 37.498 793.519 37.674 793.167 38.026C792.815 38.378 792.596 38.8847 792.511 39.546Z" fill="white" fill-opacity="0.9"/>
<path d="M804.08 44.618V37.882H802.864V36.298H804.08V35.738C804.08 34.97 804.293 34.3673 804.72 33.93C805.157 33.482 805.824 33.258 806.72 33.258H808.384V34.842H807.104C806.464 34.842 806.144 35.178 806.144 35.85V36.298H808.272V37.882H806.144V44.618H804.08Z" fill="white" fill-opacity="0.9"/>
<path d="M812.87 44.81C812.027 44.81 811.291 44.6287 810.662 44.266C810.033 43.8927 809.542 43.3753 809.19 42.714C808.838 42.042 808.662 41.2527 808.662 40.346C808.662 39.4393 808.838 38.6553 809.19 37.994C809.542 37.322 810.033 36.8047 810.662 36.442C811.291 36.0687 812.027 35.882 812.87 35.882C813.713 35.882 814.449 36.0687 815.078 36.442C815.707 36.8047 816.193 37.322 816.534 37.994C816.886 38.6553 817.062 39.4393 817.062 40.346C817.062 41.2527 816.886 42.042 816.534 42.714C816.193 43.3753 815.707 43.8927 815.078 44.266C814.449 44.6287 813.713 44.81 812.87 44.81ZM812.87 43.146C813.531 43.146 814.043 42.9007 814.406 42.41C814.769 41.9193 814.95 41.2313 814.95 40.346C814.95 39.4607 814.769 38.7727 814.406 38.282C814.043 37.7913 813.531 37.546 812.87 37.546C812.209 37.546 811.697 37.7913 811.334 38.282C810.971 38.7727 810.79 39.4607 810.79 40.346C810.79 41.2313 810.971 41.9193 811.334 42.41C811.697 42.9007 812.209 43.146 812.87 43.146Z" fill="white" fill-opacity="0.9"/>
<path d="M818.24 44.618V36.074H820.16L820.208 37.738C820.378 37.162 820.629 36.7407 820.96 36.474C821.29 36.2073 821.722 36.074 822.256 36.074H823.04V37.834H822.24C821.589 37.834 821.098 37.9833 820.768 38.282C820.448 38.57 820.288 39.0393 820.288 39.69V44.618H818.24Z" fill="white" fill-opacity="0.9"/>
<path d="M828.551 44.618V37.882H827.335V36.298H828.551V35.738C828.551 34.97 828.764 34.3673 829.191 33.93C829.628 33.482 830.295 33.258 831.191 33.258H832.855V34.842H831.575C830.935 34.842 830.615 35.178 830.615 35.85V36.298H832.743V37.882H830.615V44.618H828.551Z" fill="white" fill-opacity="0.9"/>
<path d="M834.081 44.618V36.074H836.001L836.049 37.738C836.22 37.162 836.47 36.7407 836.801 36.474C837.132 36.2073 837.564 36.074 838.097 36.074H838.881V37.834H838.081C837.43 37.834 836.94 37.9833 836.609 38.282C836.289 38.57 836.129 39.0393 836.129 39.69V44.618H834.081Z" fill="white" fill-opacity="0.9"/>
<path d="M843.376 44.81C842.522 44.81 841.781 44.6287 841.152 44.266C840.533 43.8927 840.048 43.37 839.696 42.698C839.354 42.026 839.184 41.242 839.184 40.346C839.184 39.45 839.354 38.666 839.696 37.994C840.037 37.322 840.517 36.8047 841.136 36.442C841.765 36.0687 842.496 35.882 843.328 35.882C844.149 35.882 844.864 36.0633 845.472 36.426C846.08 36.7887 846.549 37.3113 846.88 37.994C847.221 38.6767 847.392 39.498 847.392 40.458V40.922H841.312C841.344 41.6687 841.546 42.234 841.92 42.618C842.293 42.9913 842.784 43.178 843.392 43.178C844.32 43.178 844.912 42.7833 845.168 41.994L847.264 42.122C847.029 42.954 846.565 43.61 845.872 44.09C845.189 44.57 844.357 44.81 843.376 44.81ZM841.312 39.546H845.264C845.221 38.8527 845.024 38.3407 844.672 38.01C844.32 37.6687 843.872 37.498 843.328 37.498C842.773 37.498 842.32 37.674 841.968 38.026C841.616 38.378 841.397 38.8847 841.312 39.546Z" fill="white" fill-opacity="0.9"/>
<path d="M852.302 44.81C851.449 44.81 850.707 44.6287 850.078 44.266C849.459 43.8927 848.974 43.37 848.622 42.698C848.281 42.026 848.11 41.242 848.11 40.346C848.11 39.45 848.281 38.666 848.622 37.994C848.963 37.322 849.443 36.8047 850.062 36.442C850.691 36.0687 851.422 35.882 852.254 35.882C853.075 35.882 853.79 36.0633 854.398 36.426C855.006 36.7887 855.475 37.3113 855.806 37.994C856.147 38.6767 856.318 39.498 856.318 40.458V40.922H850.238C850.27 41.6687 850.473 42.234 850.846 42.618C851.219 42.9913 851.71 43.178 852.318 43.178C853.246 43.178 853.838 42.7833 854.094 41.994L856.19 42.122C855.955 42.954 855.491 43.61 854.798 44.09C854.115 44.57 853.283 44.81 852.302 44.81ZM850.238 39.546H854.19C854.147 38.8527 853.95 38.3407 853.598 38.01C853.246 37.6687 852.798 37.498 852.254 37.498C851.699 37.498 851.246 37.674 850.894 38.026C850.542 38.378 850.323 38.8847 850.238 39.546Z" fill="white" fill-opacity="0.9"/>
<path d="M862.703 44.618L860.143 36.074H862.239L863.887 42.298L865.615 36.074H867.391L869.119 42.298L870.783 36.074H872.879L870.303 44.618H868.191L866.495 38.89L864.815 44.618H862.703Z" fill="white" fill-opacity="0.9"/>
<path d="M873.853 44.618V36.074H875.901V44.618H873.853ZM873.821 34.938V33.114H875.949V34.938H873.821Z" fill="white" fill-opacity="0.9"/>
<path d="M880.562 44.618C879.709 44.618 879.08 44.426 878.674 44.042C878.28 43.6473 878.082 43.0233 878.082 42.17V37.658H876.738V36.074H878.082V34.074H880.13V36.074H882.386V37.658H880.13V41.978C880.13 42.3833 880.216 42.6607 880.386 42.81C880.568 42.9593 880.834 43.034 881.186 43.034H882.386V44.618H880.562Z" fill="white" fill-opacity="0.9"/>
<path d="M883.518 44.618V33.258H885.566V37.21C885.8 36.762 886.131 36.4313 886.558 36.218C886.984 35.994 887.464 35.882 887.998 35.882C888.947 35.882 889.667 36.186 890.158 36.794C890.648 37.3913 890.894 38.17 890.894 39.13V44.618H888.846V39.626C888.846 38.2393 888.36 37.546 887.39 37.546C886.824 37.546 886.376 37.7273 886.046 38.09C885.726 38.4527 885.566 38.9807 885.566 39.674V44.618H883.518Z" fill="white" fill-opacity="0.9"/>
<path d="M896.108 44.618V33.258H900.86C901.682 33.258 902.391 33.3967 902.988 33.674C903.586 33.9513 904.05 34.346 904.38 34.858C904.711 35.37 904.876 35.9727 904.876 36.666C904.876 37.3487 904.684 37.93 904.3 38.41C903.927 38.8793 903.463 39.1993 902.908 39.37C903.996 39.53 904.588 40.186 904.684 41.338L904.972 44.618H902.86L902.62 41.642C902.588 41.1833 902.444 40.8527 902.188 40.65C901.932 40.4367 901.506 40.33 900.908 40.33H898.188V44.618H896.108ZM898.188 38.506H900.732C901.351 38.506 901.836 38.362 902.188 38.074C902.551 37.7753 902.732 37.3487 902.732 36.794C902.732 36.2393 902.551 35.8127 902.188 35.514C901.826 35.2153 901.308 35.066 900.636 35.066H898.188V38.506Z" fill="white" fill-opacity="0.9"/>
<path d="M909.012 44.81C908.116 44.81 907.396 44.6073 906.852 44.202C906.308 43.7967 906.036 43.2207 906.036 42.474C906.036 41.738 906.265 41.162 906.724 40.746C907.182 40.33 907.881 40.0313 908.82 39.85L911.652 39.29C911.652 38.074 911.108 37.466 910.02 37.466C909.518 37.466 909.124 37.5833 908.836 37.818C908.558 38.042 908.372 38.3673 908.276 38.794L906.18 38.698C906.35 37.802 906.766 37.1087 907.428 36.618C908.089 36.1273 908.953 35.882 910.02 35.882C911.236 35.882 912.153 36.1913 912.772 36.81C913.39 37.418 913.7 38.2927 913.7 39.434V42.538C913.7 42.762 913.737 42.9167 913.812 43.002C913.897 43.0873 914.02 43.13 914.18 43.13H914.452V44.618C914.27 44.6607 914.025 44.682 913.716 44.682C913.246 44.682 912.852 44.586 912.532 44.394C912.212 44.1913 912.009 43.8287 911.924 43.306C911.71 43.754 911.342 44.1167 910.82 44.394C910.308 44.6713 909.705 44.81 909.012 44.81ZM909.428 43.322C910.11 43.322 910.649 43.1247 911.044 42.73C911.449 42.3353 911.652 41.8127 911.652 41.162V40.682L909.444 41.13C908.985 41.226 908.654 41.37 908.452 41.562C908.26 41.7433 908.164 41.9833 908.164 42.282C908.164 42.9753 908.585 43.322 909.428 43.322Z" fill="white" fill-opacity="0.9"/>
<path d="M919.201 44.81C918.348 44.81 917.606 44.6287 916.977 44.266C916.348 43.8927 915.857 43.37 915.505 42.698C915.164 42.026 914.993 41.242 914.993 40.346C914.993 39.45 915.164 38.666 915.505 37.994C915.857 37.322 916.348 36.8047 916.977 36.442C917.606 36.0687 918.348 35.882 919.201 35.882C920.289 35.882 921.19 36.1647 921.905 36.73C922.63 37.2953 923.057 38.0847 923.185 39.098L921.073 39.21C920.988 38.666 920.78 38.2553 920.449 37.978C920.118 37.69 919.702 37.546 919.201 37.546C918.54 37.546 918.028 37.7913 917.665 38.282C917.302 38.7727 917.121 39.4607 917.121 40.346C917.121 41.2313 917.302 41.9193 917.665 42.41C918.028 42.9007 918.54 43.146 919.201 43.146C919.702 43.146 920.118 43.002 920.449 42.714C920.79 42.426 920.998 41.978 921.073 41.37L923.185 41.466C923.068 42.49 922.646 43.306 921.921 43.914C921.206 44.5113 920.3 44.81 919.201 44.81Z" fill="white" fill-opacity="0.9"/>
<path d="M924.086 44.618V33.258H926.134V39.93L929.638 36.074H932.166L928.822 39.626L932.278 44.618H929.974L927.478 40.842L926.134 42.266V44.618H924.086Z" fill="white" fill-opacity="0.9"/>
<path d="M937.115 44.618V33.258H941.515C942.837 33.258 943.872 33.578 944.619 34.218C945.376 34.858 945.755 35.7433 945.755 36.874C945.755 38.0153 945.376 38.9113 944.619 39.562C943.872 40.202 942.837 40.522 941.515 40.522H939.195V44.618H937.115ZM939.195 38.714H941.419C942.123 38.714 942.661 38.5593 943.035 38.25C943.419 37.9407 943.611 37.482 943.611 36.874C943.611 36.2767 943.419 35.8287 943.035 35.53C942.661 35.2207 942.123 35.066 941.419 35.066H939.195V38.714Z" fill="white" fill-opacity="0.9"/>
<path d="M949.148 44.618C948.518 44.618 948.017 44.458 947.644 44.138C947.281 43.818 947.1 43.306 947.1 42.602V33.258H949.148V42.394C949.148 42.8207 949.361 43.034 949.788 43.034H950.412V44.618H949.148Z" fill="white" fill-opacity="0.9"/>
<path d="M954.116 44.81C953.22 44.81 952.5 44.6073 951.956 44.202C951.412 43.7967 951.14 43.2207 951.14 42.474C951.14 41.738 951.369 41.162 951.828 40.746C952.287 40.33 952.985 40.0313 953.924 39.85L956.756 39.29C956.756 38.074 956.212 37.466 955.124 37.466C954.623 37.466 954.228 37.5833 953.94 37.818C953.663 38.042 953.476 38.3673 953.38 38.794L951.284 38.698C951.455 37.802 951.871 37.1087 952.532 36.618C953.193 36.1273 954.057 35.882 955.124 35.882C956.34 35.882 957.257 36.1913 957.876 36.81C958.495 37.418 958.804 38.2927 958.804 39.434V42.538C958.804 42.762 958.841 42.9167 958.916 43.002C959.001 43.0873 959.124 43.13 959.284 43.13H959.556V44.618C959.375 44.6607 959.129 44.682 958.82 44.682C958.351 44.682 957.956 44.586 957.636 44.394C957.316 44.1913 957.113 43.8287 957.028 43.306C956.815 43.754 956.447 44.1167 955.924 44.394C955.412 44.6713 954.809 44.81 954.116 44.81ZM954.532 43.322C955.215 43.322 955.753 43.1247 956.148 42.73C956.553 42.3353 956.756 41.8127 956.756 41.162V40.682L954.548 41.13C954.089 41.226 953.759 41.37 953.556 41.562C953.364 41.7433 953.268 41.9833 953.268 42.282C953.268 42.9753 953.689 43.322 954.532 43.322Z" fill="white" fill-opacity="0.9"/>
<path d="M960.624 44.618V36.074H962.48L962.528 37.53C962.763 36.9433 963.104 36.522 963.552 36.266C964.011 36.01 964.523 35.882 965.088 35.882C966.027 35.882 966.747 36.186 967.248 36.794C967.749 37.3913 968 38.17 968 39.13V44.618H965.952V39.786C965.952 39.0607 965.84 38.506 965.616 38.122C965.403 37.738 965.019 37.546 964.464 37.546C963.909 37.546 963.472 37.738 963.152 38.122C962.832 38.506 962.672 39.0607 962.672 39.786V44.618H960.624Z" fill="white" fill-opacity="0.9"/>
<path d="M692.678 64.618L696.262 54.678H698.194L701.778 64.618H700.154L699.258 62.028H695.198L694.288 64.618H692.678ZM695.674 60.656H698.782L697.228 56.12L695.674 60.656Z" fill="white" fill-opacity="0.5"/>
<path d="M702.571 64.618V57.17H703.929L703.957 58.472C704.153 57.9587 704.451 57.5853 704.853 57.352C705.254 57.1187 705.711 57.002 706.225 57.002C706.775 57.002 707.237 57.128 707.611 57.38C707.984 57.6227 708.264 57.9587 708.451 58.388C708.647 58.808 708.745 59.2887 708.745 59.83V64.618H707.261V60.278C707.261 59.6247 707.149 59.1253 706.925 58.78C706.71 58.4253 706.341 58.248 705.819 58.248C705.287 58.248 704.857 58.4253 704.531 58.78C704.213 59.1253 704.055 59.6247 704.055 60.278V64.618H702.571Z" fill="white" fill-opacity="0.5"/>
<path d="M716.514 64.786C715.805 64.786 715.184 64.6273 714.652 64.31C714.12 63.9833 713.705 63.5307 713.406 62.952C713.117 62.3733 712.972 61.6873 712.972 60.894C712.972 60.1007 713.117 59.4147 713.406 58.836C713.705 58.2573 714.12 57.8093 714.652 57.492C715.184 57.1653 715.805 57.002 716.514 57.002C717.224 57.002 717.84 57.1653 718.362 57.492C718.894 57.8093 719.305 58.2573 719.594 58.836C719.893 59.4147 720.042 60.1007 720.042 60.894C720.042 61.6873 719.893 62.3733 719.594 62.952C719.305 63.5307 718.894 63.9833 718.362 64.31C717.84 64.6273 717.224 64.786 716.514 64.786ZM716.514 63.498C717.14 63.498 717.625 63.2693 717.97 62.812C718.325 62.3547 718.502 61.7153 718.502 60.894C718.502 60.082 718.325 59.4473 717.97 58.99C717.625 58.5233 717.14 58.29 716.514 58.29C715.88 58.29 715.385 58.5233 715.03 58.99C714.685 59.4473 714.512 60.082 714.512 60.894C714.512 61.7153 714.685 62.3547 715.03 62.812C715.385 63.2693 715.88 63.498 716.514 63.498Z" fill="white" fill-opacity="0.5"/>
<path d="M721.203 66.718V57.17H722.603L722.631 58.304C722.846 57.8747 723.149 57.5527 723.541 57.338C723.942 57.114 724.39 57.002 724.885 57.002C725.613 57.002 726.21 57.184 726.677 57.548C727.153 57.9027 727.503 58.374 727.727 58.962C727.96 59.55 728.077 60.194 728.077 60.894C728.077 61.594 727.96 62.238 727.727 62.826C727.503 63.414 727.153 63.89 726.677 64.254C726.21 64.6087 725.613 64.786 724.885 64.786C724.409 64.786 723.975 64.6833 723.583 64.478C723.191 64.2633 722.892 63.974 722.687 63.61V66.718H721.203ZM724.619 63.498C725.216 63.498 725.683 63.2693 726.019 62.812C726.364 62.3547 726.537 61.7153 726.537 60.894C726.537 60.0727 726.364 59.4333 726.019 58.976C725.683 58.5187 725.216 58.29 724.619 58.29C724.022 58.29 723.55 58.5093 723.205 58.948C722.86 59.3867 722.687 60.0353 722.687 60.894C722.687 61.7527 722.86 62.4013 723.205 62.84C723.55 63.2787 724.022 63.498 724.619 63.498Z" fill="white" fill-opacity="0.5"/>
<path d="M732.354 64.786C731.635 64.786 731.01 64.6273 730.478 64.31C729.955 63.9833 729.549 63.5307 729.26 62.952C728.97 62.364 728.826 61.678 728.826 60.894C728.826 60.11 728.97 59.4287 729.26 58.85C729.549 58.262 729.95 57.8093 730.464 57.492C730.986 57.1653 731.602 57.002 732.312 57.002C732.993 57.002 733.59 57.1607 734.104 57.478C734.617 57.786 735.014 58.234 735.294 58.822C735.583 59.41 735.728 60.1193 735.728 60.95V61.328H730.38C730.417 62.056 730.608 62.602 730.954 62.966C731.308 63.33 731.78 63.512 732.368 63.512C732.806 63.512 733.17 63.414 733.46 63.218C733.749 63.0127 733.954 62.7327 734.076 62.378L735.616 62.476C735.42 63.176 735.032 63.736 734.454 64.156C733.884 64.576 733.184 64.786 732.354 64.786ZM730.38 60.208H734.146C734.099 59.5453 733.908 59.0553 733.572 58.738C733.245 58.4207 732.825 58.262 732.312 58.262C731.789 58.262 731.355 58.43 731.01 58.766C730.674 59.0927 730.464 59.5733 730.38 60.208Z" fill="white" fill-opacity="0.5"/>
<path d="M736.892 64.618V57.17H738.25L738.278 58.472C738.474 57.9587 738.773 57.5853 739.174 57.352C739.576 57.1187 740.033 57.002 740.546 57.002C741.097 57.002 741.559 57.128 741.932 57.38C742.306 57.6227 742.586 57.9587 742.772 58.388C742.968 58.808 743.066 59.2887 743.066 59.83V64.618H741.582V60.278C741.582 59.6247 741.47 59.1253 741.246 58.78C741.032 58.4253 740.663 58.248 740.14 58.248C739.608 58.248 739.179 58.4253 738.852 58.78C738.535 59.1253 738.376 59.6247 738.376 60.278V64.618H736.892Z" fill="white" fill-opacity="0.5"/>
<path d="M744.31 61.188V59.886H749V61.188H744.31Z" fill="white" fill-opacity="0.5"/>
<path d="M753.169 64.786C752.115 64.786 751.307 64.5527 750.747 64.086C750.187 63.61 749.879 63.0033 749.823 62.266L751.363 62.196C751.429 62.6067 751.601 62.9333 751.881 63.176C752.171 63.4187 752.6 63.54 753.169 63.54C753.627 63.54 753.991 63.4653 754.261 63.316C754.541 63.1667 754.681 62.9287 754.681 62.602C754.681 62.4247 754.635 62.2753 754.541 62.154C754.457 62.0233 754.289 61.916 754.037 61.832C753.785 61.7387 753.407 61.65 752.903 61.566C752.166 61.4353 751.587 61.272 751.167 61.076C750.747 60.88 750.449 60.642 750.271 60.362C750.094 60.0727 750.005 59.7227 750.005 59.312C750.005 58.64 750.257 58.0893 750.761 57.66C751.275 57.2213 752.017 57.002 752.987 57.002C753.622 57.002 754.159 57.114 754.597 57.338C755.036 57.5527 755.377 57.8467 755.619 58.22C755.871 58.584 756.035 58.9947 756.109 59.452L754.583 59.536C754.509 59.1533 754.336 58.8453 754.065 58.612C753.795 58.3693 753.431 58.248 752.973 58.248C752.497 58.248 752.138 58.3413 751.895 58.528C751.662 58.7147 751.545 58.9573 751.545 59.256C751.545 59.5827 751.667 59.83 751.909 59.998C752.161 60.1567 752.595 60.2827 753.211 60.376C753.986 60.5067 754.588 60.6653 755.017 60.852C755.456 61.0387 755.764 61.2767 755.941 61.566C756.128 61.846 756.221 62.1867 756.221 62.588C756.221 63.0547 756.091 63.4513 755.829 63.778C755.568 64.1047 755.204 64.3567 754.737 64.534C754.28 64.702 753.757 64.786 753.169 64.786Z" fill="white" fill-opacity="0.5"/>
<path d="M760.492 64.786C759.783 64.786 759.162 64.6273 758.63 64.31C758.098 63.9833 757.683 63.5307 757.384 62.952C757.095 62.3733 756.95 61.6873 756.95 60.894C756.95 60.1007 757.095 59.4147 757.384 58.836C757.683 58.2573 758.098 57.8093 758.63 57.492C759.162 57.1653 759.783 57.002 760.492 57.002C761.202 57.002 761.818 57.1653 762.34 57.492C762.872 57.8093 763.283 58.2573 763.572 58.836C763.871 59.4147 764.02 60.1007 764.02 60.894C764.02 61.6873 763.871 62.3733 763.572 62.952C763.283 63.5307 762.872 63.9833 762.34 64.31C761.818 64.6273 761.202 64.786 760.492 64.786ZM760.492 63.498C761.118 63.498 761.603 63.2693 761.948 62.812C762.303 62.3547 762.48 61.7153 762.48 60.894C762.48 60.082 762.303 59.4473 761.948 58.99C761.603 58.5233 761.118 58.29 760.492 58.29C759.858 58.29 759.363 58.5233 759.008 58.99C758.663 59.4473 758.49 60.082 758.49 60.894C758.49 61.7153 758.663 62.3547 759.008 62.812C759.363 63.2693 759.858 63.498 760.492 63.498Z" fill="white" fill-opacity="0.5"/>
<path d="M767.563 64.786C766.807 64.786 766.209 64.5387 765.771 64.044C765.332 63.5493 765.113 62.854 765.113 61.958V57.17H766.597V61.58C766.597 62.252 766.713 62.7467 766.947 63.064C767.18 63.3813 767.535 63.54 768.011 63.54C768.552 63.54 768.972 63.3673 769.271 63.022C769.579 62.6673 769.733 62.1727 769.733 61.538V57.17H771.217V64.618H769.831L769.817 63.4C769.415 64.324 768.664 64.786 767.563 64.786Z" fill="white" fill-opacity="0.5"/>
<path d="M772.896 64.618V57.17H774.254L774.296 58.584C774.436 58.0987 774.651 57.744 774.94 57.52C775.239 57.2867 775.617 57.17 776.074 57.17H776.788V58.5H776.074C775.505 58.5 775.08 58.64 774.8 58.92C774.52 59.2 774.38 59.634 774.38 60.222V64.618H772.896Z" fill="white" fill-opacity="0.5"/>
<path d="M780.697 64.786C779.979 64.786 779.353 64.6273 778.821 64.31C778.299 63.9833 777.888 63.5307 777.589 62.952C777.3 62.364 777.155 61.678 777.155 60.894C777.155 60.11 777.3 59.4287 777.589 58.85C777.888 58.262 778.299 57.8093 778.821 57.492C779.353 57.1653 779.979 57.002 780.697 57.002C781.603 57.002 782.349 57.24 782.937 57.716C783.535 58.1827 783.894 58.8453 784.015 59.704L782.475 59.788C782.401 59.3027 782.2 58.934 781.873 58.682C781.556 58.4207 781.164 58.29 780.697 58.29C780.063 58.29 779.568 58.5233 779.213 58.99C778.868 59.4473 778.695 60.082 778.695 60.894C778.695 61.7153 778.868 62.3547 779.213 62.812C779.568 63.2693 780.063 63.498 780.697 63.498C781.164 63.498 781.556 63.3673 781.873 63.106C782.2 62.8353 782.401 62.4293 782.475 61.888L784.015 61.972C783.903 62.8307 783.549 63.5167 782.951 64.03C782.354 64.534 781.603 64.786 780.697 64.786Z" fill="white" fill-opacity="0.5"/>
<path d="M788.138 64.786C787.42 64.786 786.794 64.6273 786.262 64.31C785.74 63.9833 785.334 63.5307 785.044 62.952C784.755 62.364 784.61 61.678 784.61 60.894C784.61 60.11 784.755 59.4287 785.044 58.85C785.334 58.262 785.735 57.8093 786.248 57.492C786.771 57.1653 787.387 57.002 788.096 57.002C788.778 57.002 789.375 57.1607 789.888 57.478C790.402 57.786 790.798 58.234 791.078 58.822C791.368 59.41 791.512 60.1193 791.512 60.95V61.328H786.164C786.202 62.056 786.393 62.602 786.738 62.966C787.093 63.33 787.564 63.512 788.152 63.512C788.591 63.512 788.955 63.414 789.244 63.218C789.534 63.0127 789.739 62.7327 789.86 62.378L791.4 62.476C791.204 63.176 790.817 63.736 790.238 64.156C789.669 64.576 788.969 64.786 788.138 64.786ZM786.164 60.208H789.93C789.884 59.5453 789.692 59.0553 789.356 58.738C789.03 58.4207 788.61 58.262 788.096 58.262C787.574 58.262 787.14 58.43 786.794 58.766C786.458 59.0927 786.248 59.5733 786.164 60.208Z" fill="white" fill-opacity="0.5"/>
<path d="M795.743 64.618V57.17H797.101L797.143 58.584C797.283 58.0987 797.498 57.744 797.787 57.52C798.086 57.2867 798.464 57.17 798.921 57.17H799.635V58.5H798.921C798.352 58.5 797.927 58.64 797.647 58.92C797.367 59.2 797.227 59.634 797.227 60.222V64.618H795.743Z" fill="white" fill-opacity="0.5"/>
<path d="M802.619 64.786C801.844 64.786 801.224 64.6087 800.757 64.254C800.3 63.8993 800.071 63.4 800.071 62.756C800.071 62.1213 800.262 61.622 800.645 61.258C801.037 60.894 801.639 60.6327 802.451 60.474L805.013 59.984C805.013 58.836 804.481 58.262 803.417 58.262C802.941 58.262 802.563 58.3693 802.283 58.584C802.012 58.7987 801.83 59.1067 801.737 59.508L800.197 59.41C800.337 58.6633 800.687 58.0753 801.247 57.646C801.807 57.2167 802.53 57.002 803.417 57.002C804.425 57.002 805.19 57.2727 805.713 57.814C806.236 58.346 806.497 59.0973 806.497 60.068V62.966C806.497 63.1433 806.53 63.2693 806.595 63.344C806.66 63.4093 806.763 63.442 806.903 63.442H807.169V64.618C807.038 64.646 806.856 64.66 806.623 64.66C806.194 64.66 805.853 64.5713 805.601 64.394C805.358 64.2167 805.204 63.9087 805.139 63.47C804.952 63.862 804.63 64.1793 804.173 64.422C803.725 64.6647 803.207 64.786 802.619 64.786ZM802.871 63.61C803.534 63.61 804.056 63.4187 804.439 63.036C804.822 62.6533 805.013 62.168 805.013 61.58V61.104L802.843 61.524C802.395 61.608 802.078 61.7433 801.891 61.93C801.704 62.1073 801.611 62.336 801.611 62.616C801.611 62.9333 801.718 63.1807 801.933 63.358C802.157 63.526 802.47 63.61 802.871 63.61Z" fill="white" fill-opacity="0.5"/>
<path d="M811.246 64.786C810.527 64.786 809.902 64.6273 809.37 64.31C808.847 63.9833 808.436 63.5307 808.138 62.952C807.848 62.364 807.704 61.678 807.704 60.894C807.704 60.11 807.848 59.4287 808.138 58.85C808.436 58.262 808.847 57.8093 809.37 57.492C809.902 57.1653 810.527 57.002 811.246 57.002C812.151 57.002 812.898 57.24 813.486 57.716C814.083 58.1827 814.442 58.8453 814.564 59.704L813.024 59.788C812.949 59.3027 812.748 58.934 812.422 58.682C812.104 58.4207 811.712 58.29 811.246 58.29C810.611 58.29 810.116 58.5233 809.762 58.99C809.416 59.4473 809.244 60.082 809.244 60.894C809.244 61.7153 809.416 62.3547 809.762 62.812C810.116 63.2693 810.611 63.498 811.246 63.498C811.712 63.498 812.104 63.3673 812.422 63.106C812.748 62.8353 812.949 62.4293 813.024 61.888L814.564 61.972C814.452 62.8307 814.097 63.5167 813.5 64.03C812.902 64.534 812.151 64.786 811.246 64.786Z" fill="white" fill-opacity="0.5"/>
<path d="M815.429 64.618V54.678H816.913V60.852L820.259 57.17H822.135L819.223 60.306L822.247 64.618H820.539L818.229 61.23L816.913 62.63V64.618H815.429Z" fill="white" fill-opacity="0.5"/>
<path d="M829.212 64.786C828.568 64.786 828.013 64.6273 827.546 64.31C827.079 63.9927 826.72 63.5447 826.468 62.966C826.216 62.378 826.09 61.6873 826.09 60.894C826.09 60.1007 826.216 59.4147 826.468 58.836C826.729 58.248 827.093 57.7953 827.56 57.478C828.027 57.1607 828.577 57.002 829.212 57.002C829.716 57.002 830.169 57.1093 830.57 57.324C830.981 57.5387 831.284 57.8373 831.48 58.22V54.678H832.964V64.618H831.592L831.55 63.498C831.335 63.9087 831.018 64.226 830.598 64.45C830.187 64.674 829.725 64.786 829.212 64.786ZM829.604 63.498C830.211 63.498 830.673 63.2693 830.99 62.812C831.317 62.3547 831.48 61.7153 831.48 60.894C831.48 60.0633 831.317 59.424 830.99 58.976C830.673 58.5187 830.211 58.29 829.604 58.29C829.007 58.29 828.526 58.5233 828.162 58.99C827.807 59.4473 827.63 60.082 827.63 60.894C827.63 61.6873 827.807 62.322 828.162 62.798C828.526 63.2647 829.007 63.498 829.604 63.498Z" fill="white" fill-opacity="0.5"/>
<path d="M837.743 64.786C837.024 64.786 836.399 64.6273 835.867 64.31C835.344 63.9833 834.938 63.5307 834.649 62.952C834.36 62.364 834.215 61.678 834.215 60.894C834.215 60.11 834.36 59.4287 834.649 58.85C834.938 58.262 835.34 57.8093 835.853 57.492C836.376 57.1653 836.992 57.002 837.701 57.002C838.382 57.002 838.98 57.1607 839.493 57.478C840.006 57.786 840.403 58.234 840.683 58.822C840.972 59.41 841.117 60.1193 841.117 60.95V61.328H835.769C835.806 62.056 835.998 62.602 836.343 62.966C836.698 63.33 837.169 63.512 837.757 63.512C838.196 63.512 838.56 63.414 838.849 63.218C839.138 63.0127 839.344 62.7327 839.465 62.378L841.005 62.476C840.809 63.176 840.422 63.736 839.843 64.156C839.274 64.576 838.574 64.786 837.743 64.786ZM835.769 60.208H839.535C839.488 59.5453 839.297 59.0553 838.961 58.738C838.634 58.4207 838.214 58.262 837.701 58.262C837.178 58.262 836.744 58.43 836.399 58.766C836.063 59.0927 835.853 59.5733 835.769 60.208Z" fill="white" fill-opacity="0.5"/>
<path d="M845.194 64.786C844.139 64.786 843.332 64.5527 842.772 64.086C842.212 63.61 841.904 63.0033 841.848 62.266L843.388 62.196C843.453 62.6067 843.626 62.9333 843.906 63.176C844.195 63.4187 844.624 63.54 845.194 63.54C845.651 63.54 846.015 63.4653 846.286 63.316C846.566 63.1667 846.706 62.9287 846.706 62.602C846.706 62.4247 846.659 62.2753 846.566 62.154C846.482 62.0233 846.314 61.916 846.062 61.832C845.81 61.7387 845.432 61.65 844.928 61.566C844.19 61.4353 843.612 61.272 843.192 61.076C842.772 60.88 842.473 60.642 842.296 60.362C842.118 60.0727 842.03 59.7227 842.03 59.312C842.03 58.64 842.282 58.0893 842.786 57.66C843.299 57.2213 844.041 57.002 845.012 57.002C845.646 57.002 846.183 57.114 846.622 57.338C847.06 57.5527 847.401 57.8467 847.644 58.22C847.896 58.584 848.059 58.9947 848.134 59.452L846.608 59.536C846.533 59.1533 846.36 58.8453 846.09 58.612C845.819 58.3693 845.455 58.248 844.998 58.248C844.522 58.248 844.162 58.3413 843.92 58.528C843.686 58.7147 843.57 58.9573 843.57 59.256C843.57 59.5827 843.691 59.83 843.934 59.998C844.186 60.1567 844.62 60.2827 845.236 60.376C846.01 60.5067 846.612 60.6653 847.042 60.852C847.48 61.0387 847.788 61.2767 847.966 61.566C848.152 61.846 848.246 62.1867 848.246 62.588C848.246 63.0547 848.115 63.4513 847.854 63.778C847.592 64.1047 847.228 64.3567 846.762 64.534C846.304 64.702 845.782 64.786 845.194 64.786Z" fill="white" fill-opacity="0.5"/>
<path d="M849.245 64.618V57.17H850.729V64.618H849.245ZM849.217 56.092V54.608H850.771V56.092H849.217Z" fill="white" fill-opacity="0.5"/>
<path d="M855.431 66.886C854.544 66.886 853.821 66.69 853.261 66.298C852.701 65.906 852.342 65.388 852.183 64.744L853.723 64.646C853.816 64.9633 853.989 65.2107 854.241 65.388C854.502 65.5653 854.899 65.654 855.431 65.654C856.047 65.654 856.518 65.5233 856.845 65.262C857.172 65.0007 857.335 64.604 857.335 64.072V62.994C857.158 63.3767 856.873 63.68 856.481 63.904C856.089 64.128 855.65 64.24 855.165 64.24C854.54 64.24 853.984 64.0907 853.499 63.792C853.023 63.484 852.645 63.0593 852.365 62.518C852.094 61.9673 851.959 61.3373 851.959 60.628C851.959 59.9187 852.094 59.2933 852.365 58.752C852.636 58.2013 853.009 57.772 853.485 57.464C853.961 57.156 854.507 57.002 855.123 57.002C855.655 57.002 856.122 57.1233 856.523 57.366C856.924 57.6087 857.214 57.9353 857.391 58.346V57.17H858.833V64.03C858.833 64.9447 858.525 65.6493 857.909 66.144C857.302 66.6387 856.476 66.886 855.431 66.886ZM855.403 62.98C855.991 62.98 856.458 62.77 856.803 62.35C857.158 61.93 857.34 61.3513 857.349 60.614C857.358 59.886 857.186 59.312 856.831 58.892C856.476 58.472 856 58.262 855.403 58.262C854.806 58.262 854.339 58.4767 854.003 58.906C853.667 59.326 853.499 59.8953 853.499 60.614C853.499 61.342 853.667 61.9207 854.003 62.35C854.348 62.77 854.815 62.98 855.403 62.98Z" fill="white" fill-opacity="0.5"/>
<path d="M860.518 64.618V57.17H861.876L861.904 58.472C862.1 57.9587 862.399 57.5853 862.8 57.352C863.201 57.1187 863.659 57.002 864.172 57.002C864.723 57.002 865.185 57.128 865.558 57.38C865.931 57.6227 866.211 57.9587 866.398 58.388C866.594 58.808 866.692 59.2887 866.692 59.83V64.618H865.208V60.278C865.208 59.6247 865.096 59.1253 864.872 58.78C864.657 58.4253 864.289 58.248 863.766 58.248C863.234 58.248 862.805 58.4253 862.478 58.78C862.161 59.1253 862.002 59.6247 862.002 60.278V64.618H860.518Z" fill="white" fill-opacity="0.5"/>
<path d="M871.272 64.786C870.553 64.786 869.928 64.6273 869.396 64.31C868.873 63.9833 868.467 63.5307 868.178 62.952C867.889 62.364 867.744 61.678 867.744 60.894C867.744 60.11 867.889 59.4287 868.178 58.85C868.467 58.262 868.869 57.8093 869.382 57.492C869.905 57.1653 870.521 57.002 871.23 57.002C871.911 57.002 872.509 57.1607 873.022 57.478C873.535 57.786 873.932 58.234 874.212 58.822C874.501 59.41 874.646 60.1193 874.646 60.95V61.328H869.298C869.335 62.056 869.527 62.602 869.872 62.966C870.227 63.33 870.698 63.512 871.286 63.512C871.725 63.512 872.089 63.414 872.378 63.218C872.667 63.0127 872.873 62.7327 872.994 62.378L874.534 62.476C874.338 63.176 873.951 63.736 873.372 64.156C872.803 64.576 872.103 64.786 871.272 64.786ZM869.298 60.208H873.064C873.017 59.5453 872.826 59.0553 872.49 58.738C872.163 58.4207 871.743 58.262 871.23 58.262C870.707 58.262 870.273 58.43 869.928 58.766C869.592 59.0927 869.382 59.5733 869.298 60.208Z" fill="white" fill-opacity="0.5"/>
<path d="M875.811 64.618V57.17H877.169L877.211 58.584C877.351 58.0987 877.565 57.744 877.855 57.52C878.153 57.2867 878.531 57.17 878.989 57.17H879.703V58.5H878.989C878.419 58.5 877.995 58.64 877.715 58.92C877.435 59.2 877.295 59.634 877.295 60.222V64.618H875.811Z" fill="white" fill-opacity="0.5"/>
<path d="M884.695 64.618V58.472H883.659V57.268H884.695V56.694C884.695 56.078 884.868 55.588 885.213 55.224C885.559 54.86 886.1 54.678 886.837 54.678H888.153V55.896H887.033C886.464 55.896 886.179 56.19 886.179 56.778V57.268H888.041V58.472H886.179V64.618H884.695Z" fill="white" fill-opacity="0.5"/>
<path d="M892.014 64.786C891.305 64.786 890.684 64.6273 890.152 64.31C889.62 63.9833 889.205 63.5307 888.906 62.952C888.617 62.3733 888.472 61.6873 888.472 60.894C888.472 60.1007 888.617 59.4147 888.906 58.836C889.205 58.2573 889.62 57.8093 890.152 57.492C890.684 57.1653 891.305 57.002 892.014 57.002C892.723 57.002 893.339 57.1653 893.862 57.492C894.394 57.8093 894.805 58.2573 895.094 58.836C895.393 59.4147 895.542 60.1007 895.542 60.894C895.542 61.6873 895.393 62.3733 895.094 62.952C894.805 63.5307 894.394 63.9833 893.862 64.31C893.339 64.6273 892.723 64.786 892.014 64.786ZM892.014 63.498C892.639 63.498 893.125 63.2693 893.47 62.812C893.825 62.3547 894.002 61.7153 894.002 60.894C894.002 60.082 893.825 59.4473 893.47 58.99C893.125 58.5233 892.639 58.29 892.014 58.29C891.379 58.29 890.885 58.5233 890.53 58.99C890.185 59.4473 890.012 60.082 890.012 60.894C890.012 61.7153 890.185 62.3547 890.53 62.812C890.885 63.2693 891.379 63.498 892.014 63.498Z" fill="white" fill-opacity="0.5"/>
<path d="M896.703 64.618V57.17H898.061L898.103 58.584C898.243 58.0987 898.458 57.744 898.747 57.52C899.046 57.2867 899.424 57.17 899.881 57.17H900.595V58.5H899.881C899.312 58.5 898.887 58.64 898.607 58.92C898.327 59.2 898.187 59.634 898.187 60.222V64.618H896.703Z" fill="white" fill-opacity="0.5"/>
<path d="M904.832 64.618V54.678H906.316V58.248C906.512 57.8187 906.801 57.506 907.184 57.31C907.576 57.1047 908.014 57.002 908.5 57.002C909.312 57.002 909.932 57.268 910.362 57.8C910.791 58.3227 911.006 58.9993 911.006 59.83V64.618H909.522V60.222C909.522 58.906 909.05 58.248 908.108 58.248C907.557 58.248 907.118 58.4207 906.792 58.766C906.474 59.102 906.316 59.5967 906.316 60.25V64.618H904.832Z" fill="white" fill-opacity="0.5"/>
<path d="M915.6 64.786C914.89 64.786 914.27 64.6273 913.738 64.31C913.206 63.9833 912.79 63.5307 912.492 62.952C912.202 62.3733 912.058 61.6873 912.058 60.894C912.058 60.1007 912.202 59.4147 912.492 58.836C912.79 58.2573 913.206 57.8093 913.738 57.492C914.27 57.1653 914.89 57.002 915.6 57.002C916.309 57.002 916.925 57.1653 917.448 57.492C917.98 57.8093 918.39 58.2573 918.68 58.836C918.978 59.4147 919.128 60.1007 919.128 60.894C919.128 61.6873 918.978 62.3733 918.68 62.952C918.39 63.5307 917.98 63.9833 917.448 64.31C916.925 64.6273 916.309 64.786 915.6 64.786ZM915.6 63.498C916.225 63.498 916.71 63.2693 917.056 62.812C917.41 62.3547 917.588 61.7153 917.588 60.894C917.588 60.082 917.41 59.4473 917.056 58.99C916.71 58.5233 916.225 58.29 915.6 58.29C914.965 58.29 914.47 58.5233 914.116 58.99C913.77 59.4473 913.598 60.082 913.598 60.894C913.598 61.7153 913.77 62.3547 914.116 62.812C914.47 63.2693 914.965 63.498 915.6 63.498Z" fill="white" fill-opacity="0.5"/>
<path d="M920.289 64.618V57.17H921.647L921.675 58.444C921.861 57.996 922.137 57.646 922.501 57.394C922.865 57.1327 923.28 57.002 923.747 57.002C924.297 57.002 924.759 57.1373 925.133 57.408C925.515 57.6787 925.786 58.0567 925.945 58.542C926.113 58.0473 926.379 57.6693 926.743 57.408C927.116 57.1373 927.569 57.002 928.101 57.002C928.885 57.002 929.491 57.2493 929.921 57.744C930.35 58.2293 930.565 58.9247 930.565 59.83V64.618H929.081V60.194C929.081 58.8967 928.609 58.248 927.667 58.248C927.2 58.248 926.827 58.4253 926.547 58.78C926.267 59.1347 926.127 59.6247 926.127 60.25V64.618H924.713V60.25C924.713 59.6247 924.605 59.1347 924.391 58.78C924.185 58.4253 923.831 58.248 923.327 58.248C922.851 58.248 922.473 58.4253 922.193 58.78C921.913 59.1347 921.773 59.6247 921.773 60.25V64.618H920.289Z" fill="white" fill-opacity="0.5"/>
<path d="M935.158 64.786C934.439 64.786 933.814 64.6273 933.282 64.31C932.759 63.9833 932.353 63.5307 932.064 62.952C931.775 62.364 931.63 61.678 931.63 60.894C931.63 60.11 931.775 59.4287 932.064 58.85C932.353 58.262 932.755 57.8093 933.268 57.492C933.791 57.1653 934.407 57.002 935.116 57.002C935.797 57.002 936.395 57.1607 936.908 57.478C937.421 57.786 937.818 58.234 938.098 58.822C938.387 59.41 938.532 60.1193 938.532 60.95V61.328H933.184C933.221 62.056 933.413 62.602 933.758 62.966C934.113 63.33 934.584 63.512 935.172 63.512C935.611 63.512 935.975 63.414 936.264 63.218C936.553 63.0127 936.759 62.7327 936.88 62.378L938.42 62.476C938.224 63.176 937.837 63.736 937.258 64.156C936.689 64.576 935.989 64.786 935.158 64.786ZM933.184 60.208H936.95C936.903 59.5453 936.712 59.0553 936.376 58.738C936.049 58.4207 935.629 58.262 935.116 58.262C934.593 58.262 934.159 58.43 933.814 58.766C933.478 59.0927 933.268 59.5733 933.184 60.208Z" fill="white" fill-opacity="0.5"/>
<path d="M941.334 64.618C940.84 64.618 940.443 64.492 940.144 64.24C939.855 63.988 939.71 63.5867 939.71 63.036V54.678H941.194V62.896C941.194 63.232 941.367 63.4 941.712 63.4H942.3V64.618H941.334Z" fill="white" fill-opacity="0.5"/>
<path d="M945.561 64.786C944.786 64.786 944.165 64.6087 943.699 64.254C943.241 63.8993 943.013 63.4 943.013 62.756C943.013 62.1213 943.204 61.622 943.587 61.258C943.979 60.894 944.581 60.6327 945.393 60.474L947.955 59.984C947.955 58.836 947.423 58.262 946.359 58.262C945.883 58.262 945.505 58.3693 945.225 58.584C944.954 58.7987 944.772 59.1067 944.679 59.508L943.139 59.41C943.279 58.6633 943.629 58.0753 944.189 57.646C944.749 57.2167 945.472 57.002 946.359 57.002C947.367 57.002 948.132 57.2727 948.655 57.814C949.177 58.346 949.439 59.0973 949.439 60.068V62.966C949.439 63.1433 949.471 63.2693 949.537 63.344C949.602 63.4093 949.705 63.442 949.845 63.442H950.111V64.618C949.98 64.646 949.798 64.66 949.565 64.66C949.135 64.66 948.795 64.5713 948.543 64.394C948.3 64.2167 948.146 63.9087 948.081 63.47C947.894 63.862 947.572 64.1793 947.115 64.422C946.667 64.6647 946.149 64.786 945.561 64.786ZM945.813 63.61C946.475 63.61 946.998 63.4187 947.381 63.036C947.763 62.6533 947.955 62.168 947.955 61.58V61.104L945.785 61.524C945.337 61.608 945.019 61.7433 944.833 61.93C944.646 62.1073 944.553 62.336 944.553 62.616C944.553 62.9333 944.66 63.1807 944.875 63.358C945.099 63.526 945.411 63.61 945.813 63.61Z" fill="white" fill-opacity="0.5"/>
<path d="M954.912 64.786C954.39 64.786 953.928 64.674 953.526 64.45C953.134 64.226 952.836 63.9087 952.63 63.498L952.588 64.618H951.202V54.678H952.686V58.22C952.873 57.8933 953.162 57.6087 953.554 57.366C953.946 57.1233 954.399 57.002 954.912 57.002C955.556 57.002 956.116 57.1607 956.592 57.478C957.068 57.7953 957.432 58.248 957.684 58.836C957.946 59.4147 958.076 60.1007 958.076 60.894C958.076 61.6873 957.946 62.378 957.684 62.966C957.432 63.5447 957.068 63.9927 956.592 64.31C956.116 64.6273 955.556 64.786 954.912 64.786ZM954.674 63.498C955.244 63.498 955.696 63.2647 956.032 62.798C956.368 62.3313 956.536 61.6967 956.536 60.894C956.536 60.0727 956.368 59.4333 956.032 58.976C955.706 58.5187 955.258 58.29 954.688 58.29C954.063 58.29 953.573 58.5187 953.218 58.976C952.864 59.4333 952.686 60.0727 952.686 60.894C952.686 61.6967 952.859 62.3313 953.204 62.798C953.559 63.2647 954.049 63.498 954.674 63.498Z" fill="white" fill-opacity="0.5"/>
<path d="M962.171 64.786C961.116 64.786 960.309 64.5527 959.749 64.086C959.189 63.61 958.881 63.0033 958.825 62.266L960.365 62.196C960.43 62.6067 960.603 62.9333 960.883 63.176C961.172 63.4187 961.602 63.54 962.171 63.54C962.628 63.54 962.992 63.4653 963.263 63.316C963.543 63.1667 963.683 62.9287 963.683 62.602C963.683 62.4247 963.636 62.2753 963.543 62.154C963.459 62.0233 963.291 61.916 963.039 61.832C962.787 61.7387 962.409 61.65 961.905 61.566C961.168 61.4353 960.589 61.272 960.169 61.076C959.749 60.88 959.45 60.642 959.273 60.362C959.096 60.0727 959.007 59.7227 959.007 59.312C959.007 58.64 959.259 58.0893 959.763 57.66C960.276 57.2213 961.018 57.002 961.989 57.002C962.624 57.002 963.16 57.114 963.599 57.338C964.038 57.5527 964.378 57.8467 964.621 58.22C964.873 58.584 965.036 58.9947 965.111 59.452L963.585 59.536C963.51 59.1533 963.338 58.8453 963.067 58.612C962.796 58.3693 962.432 58.248 961.975 58.248C961.499 58.248 961.14 58.3413 960.897 58.528C960.664 58.7147 960.547 58.9573 960.547 59.256C960.547 59.5827 960.668 59.83 960.911 59.998C961.163 60.1567 961.597 60.2827 962.213 60.376C962.988 60.5067 963.59 60.6653 964.019 60.852C964.458 61.0387 964.766 61.2767 964.943 61.566C965.13 61.846 965.223 62.1867 965.223 62.588C965.223 63.0547 965.092 63.4513 964.831 63.778C964.57 64.1047 964.206 64.3567 963.739 64.534C963.282 64.702 962.759 64.786 962.171 64.786Z" fill="white" fill-opacity="0.5"/>
<path d="M966.034 64.618V62.854H967.854V64.618H966.034Z" fill="white" fill-opacity="0.5"/>
</svg>
