<svg width="29" height="29" viewBox="0 0 29 29" fill="none" xmlns="http://www.w3.org/2000/svg">
<path fill-rule="evenodd" clip-rule="evenodd" d="M14.5 29C22.5081 29 29 22.5081 29 14.5C29 6.49187 22.5081 0 14.5 0C6.49187 0 0 6.49187 0 14.5C0 22.5081 6.49187 29 14.5 29ZM14.9729 11.692V21.7H18.0329V17.632C18.3449 18.184 18.7289 18.586 19.1849 18.838C19.6409 19.09 20.2049 19.216 20.8769 19.216C21.6689 19.216 22.3349 19 22.8749 18.568C23.4149 18.136 23.8229 17.536 24.0989 16.768C24.3749 16 24.5129 15.124 24.5129 14.14C24.5129 13.144 24.3749 12.268 24.0989 11.512C23.8229 10.744 23.4149 10.144 22.8749 9.712C22.3349 9.27999 21.6689 9.064 20.8769 9.064C20.1689 9.064 19.5809 9.226 19.1129 9.55C18.6569 9.862 18.2969 10.312 18.0329 10.9L17.9609 9.28H15.26H14.9729H11.956C11.272 9.28 10.744 9.442 10.372 9.766C9.99996 10.078 9.74196 10.546 9.59796 11.17L9.43596 9.28H5.07996V11.62H7.27596V16.66H5.07996V19H13.216V16.66H10.336V13.6C10.336 12.952 10.486 12.472 10.786 12.16C11.098 11.848 11.584 11.692 12.244 11.692H14.9729ZM20.9309 16.048C20.6549 16.408 20.2529 16.588 19.7249 16.588C19.2569 16.588 18.8549 16.396 18.5189 16.012C18.1949 15.628 18.0329 15.004 18.0329 14.14C18.0329 13.276 18.1949 12.652 18.5189 12.268C18.8549 11.884 19.2569 11.692 19.7249 11.692C20.2529 11.692 20.6549 11.878 20.9309 12.25C21.2069 12.61 21.3449 13.24 21.3449 14.14C21.3449 15.04 21.2069 15.676 20.9309 16.048Z" fill="black"/>
</svg>