<svg width="29" height="29" viewBox="0 0 29 29" fill="none" xmlns="http://www.w3.org/2000/svg">
<rect width="29" height="29" fill="black"/>
<path fill-rule="evenodd" clip-rule="evenodd" d="M14.5 25C20.299 25 25 20.299 25 14.5C25 8.70101 20.299 4 14.5 4C8.70101 4 4 8.70101 4 14.5C4 20.299 8.70101 25 14.5 25ZM14.8425 12.4666V19.7138H17.0583V16.768C17.2843 17.1677 17.5623 17.4588 17.8925 17.6413C18.2227 17.8238 18.6312 17.915 19.1178 17.915C19.6913 17.915 20.1736 17.7586 20.5646 17.4458C20.9556 17.133 21.2511 16.6985 21.4509 16.1423C21.6508 15.5862 21.7507 14.9519 21.7507 14.2393C21.7507 13.5181 21.6508 12.8837 21.4509 12.3363C21.2511 11.7801 20.9556 11.3457 20.5646 11.0328C20.1736 10.72 19.6913 10.5636 19.1178 10.5636C18.6051 10.5636 18.1793 10.6809 17.8404 10.9155C17.5102 11.1414 17.2495 11.4673 17.0583 11.8931L17.0062 10.72H15.0503H14.8425H12.6578C12.1625 10.72 11.7801 10.8373 11.5107 11.0719C11.2413 11.2979 11.0545 11.6368 10.9502 12.0886L10.8329 10.72H7.67859V12.4145H9.2688V16.0641H7.67859V17.7586H13.5702V16.0641H11.4847V13.8483C11.4847 13.379 11.5933 13.0314 11.8105 12.8055C12.0365 12.5796 12.3884 12.4666 12.8663 12.4666H14.8425ZM19.1569 15.621C18.957 15.8817 18.6659 16.012 18.2836 16.012C17.9447 16.012 17.6536 15.873 17.4103 15.5949C17.1756 15.3168 17.0583 14.865 17.0583 14.2393C17.0583 13.6137 17.1756 13.1618 17.4103 12.8837C17.6536 12.6057 17.9447 12.4666 18.2836 12.4666C18.6659 12.4666 18.957 12.6013 19.1569 12.8707C19.3567 13.1314 19.4567 13.5876 19.4567 14.2393C19.4567 14.891 19.3567 15.3516 19.1569 15.621Z" fill="white"/>
</svg>
