<svg width="29" height="29" viewBox="0 0 29 29" fill="none" xmlns="http://www.w3.org/2000/svg">
<rect width="29" height="29" fill="black"/>
<path fill-rule="evenodd" clip-rule="evenodd" d="M14.5 28C21.9558 28 28 21.9558 28 14.5C28 7.04416 21.9558 1 14.5 1C7.04416 1 1 7.04416 1 14.5C1 21.9558 7.04416 28 14.5 28ZM14.9403 11.8857V21.2034H17.7893V17.416C18.0798 17.9299 18.4373 18.3042 18.8618 18.5388C19.2864 18.7734 19.8115 18.8908 20.4371 18.8908C21.1745 18.8908 21.7946 18.6897 22.2973 18.2874C22.8001 17.8852 23.18 17.3266 23.4369 16.6116C23.6939 15.8965 23.8224 15.081 23.8224 14.1648C23.8224 13.2375 23.6939 12.4219 23.4369 11.7181C23.18 11.003 22.8001 10.4444 22.2973 10.0422C21.7946 9.64 21.1745 9.43889 20.4371 9.43889C19.778 9.43889 19.2305 9.58972 18.7948 9.89138C18.3702 10.1819 18.0351 10.6008 17.7893 11.1483L17.7222 9.64H15.2075H14.9403H12.1314C11.4946 9.64 11.003 9.79082 10.6566 10.0925C10.3103 10.383 10.0701 10.8187 9.93603 11.3997L9.7852 9.64H5.72961V11.8186H7.77417V16.511H5.72961V18.6897H13.3045V16.511H10.6231V13.6621C10.6231 13.0588 10.7628 12.6119 11.0421 12.3214C11.3326 12.0309 11.7851 11.8857 12.3995 11.8857H14.9403ZM20.4874 15.9412C20.2304 16.2764 19.8562 16.444 19.3646 16.444C18.9289 16.444 18.5546 16.2652 18.2418 15.9077C17.9401 15.5502 17.7893 14.9692 17.7893 14.1648C17.7893 13.3604 17.9401 12.7794 18.2418 12.4219C18.5546 12.0644 18.9289 11.8857 19.3646 11.8857C19.8562 11.8857 20.2304 12.0588 20.4874 12.4052C20.7444 12.7403 20.8729 13.3269 20.8729 14.1648C20.8729 15.0028 20.7444 15.5949 20.4874 15.9412Z" fill="white"/>
</svg>
